<?xml version="1.0" encoding="iso-8859-1"?>
<!-- Generator: Adobe Illustrator 19.0.0, SVG Export Plug-In . SVG Version: 6.00 Build 0)  -->
<svg version="1.1" id="Layer_1" xmlns="http://www.w3.org/2000/svg" xmlns:xlink="http://www.w3.org/1999/xlink" x="0px" y="0px"
	 viewBox="0 0 192.398 192.398" style="enable-background:new 0 0 192.398 192.398;" xml:space="preserve">
<g>
	<g>
		<g>
			<path d="M96.199,28.451c-37.358,0-67.75,30.393-67.75,67.75s30.393,67.75,67.75,67.75s67.75-30.393,67.75-67.75
				S133.557,28.451,96.199,28.451z M96.199,156.82c-33.426,0-60.619-27.193-60.619-60.619s27.193-60.619,60.619-60.619
				s60.619,27.193,60.619,60.619C156.818,129.627,129.625,156.82,96.199,156.82z"/>
			<path d="M191.176,110.77c-0.016-0.682-0.225-1.371-0.647-1.974c-4.767-6.829-4.767-18.362,0-25.187v-0.004
				c0.425-0.602,0.634-1.292,0.644-1.974c1.372-3.594,1.602-7.389,0.623-11.046c-0.982-3.656-3.082-6.832-6.066-9.256
				c-0.352-0.585-0.878-1.076-1.543-1.386V59.94c-7.539-3.524-13.302-13.501-12.592-21.792v-0.017
				c0.066-0.738-0.101-1.442-0.435-2.041c-0.606-3.796-2.305-7.198-4.98-9.872c-2.678-2.674-6.076-4.374-9.872-4.983
				c-0.599-0.331-1.268-0.512-2.041-0.432h-0.021c-8.277,0.731-18.264-5.053-21.789-12.592h-0.004
				c-0.31-0.665-0.801-1.191-1.386-1.543c-2.424-2.984-5.599-5.084-9.256-6.066c-3.653-0.982-7.452-0.756-11.046,0.623
				c-0.683,0.014-1.372,0.223-1.974,0.644c-6.832,4.771-18.369,4.764-25.187,0H83.6c-0.599-0.424-1.289-0.633-1.971-0.643
				c-3.598-1.379-7.393-1.606-11.046-0.624c-3.656,0.982-6.832,3.082-9.256,6.066c-0.585,0.352-1.076,0.878-1.386,1.543h-0.004
				c-3.524,7.542-13.543,13.348-21.806,12.592h-0.004c-0.756-0.07-1.438,0.097-2.041,0.435c-3.794,0.607-7.197,2.306-9.871,4.98
				c-2.674,2.678-4.374,6.08-4.983,9.872c-0.331,0.602-0.494,1.302-0.431,2.04v0.024c0.707,8.291-5.053,18.264-12.592,21.785v0.004
				c-0.665,0.31-1.191,0.801-1.543,1.386c-2.984,2.424-5.084,5.599-6.066,9.256c-0.978,3.656-0.749,7.455,0.623,11.046
				c0.014,0.682,0.223,1.372,0.644,1.974c4.767,6.829,4.767,18.362,0,25.187v0.004c-0.425,0.602-0.634,1.292-0.644,1.974
				c-1.372,3.594-1.602,7.393-0.623,11.049c0.982,3.656,3.082,6.832,6.066,9.256c0.355,0.582,0.878,1.073,1.543,1.382v0.004
				c7.539,3.524,13.302,13.504,12.592,21.795v0.014c0,0.004,0,0.004,0,0.004c-0.063,0.735,0.101,1.438,0.435,2.037
				c0.606,3.796,2.305,7.198,4.98,9.872c2.678,2.674,6.076,4.374,9.872,4.983c0.599,0.331,1.268,0.512,2.041,0.432h0.021
				c8.26-0.735,18.264,5.053,21.789,12.592h0.004c0.31,0.665,0.801,1.191,1.386,1.543c2.424,2.984,5.599,5.084,9.256,6.066
				c3.653,0.975,7.449,0.749,11.046-0.623c0.682-0.014,1.372-0.223,1.974-0.644c6.832-4.771,18.369-4.764,25.187,0h0.004
				c0.602,0.425,1.292,0.634,1.974,0.644c2.121,0.811,4.315,1.222,6.508,1.222c1.522,0,3.043-0.199,4.541-0.599
				c3.656-0.982,6.832-3.082,9.256-6.069c0.582-0.352,1.073-0.874,1.382-1.539h0.004c3.524-7.539,13.445-13.33,21.795-12.592h0.014
				c0.752,0.08,1.438-0.097,2.041-0.435c3.796-0.606,7.198-2.305,9.872-4.98c2.674-2.678,4.374-6.08,4.983-9.872
				c0.331-0.602,0.495-1.302,0.432-2.041v-0.024c-0.707-8.291,5.053-18.264,12.592-21.785v-0.004
				c0.665-0.31,1.191-0.801,1.543-1.386c2.984-2.424,5.084-5.599,6.066-9.256C192.777,118.16,192.548,114.361,191.176,110.77z
				 M184.909,119.971c-0.846,3.155-3.158,5.756-6.512,7.323v0.004c-0.592,0.275-1.076,0.696-1.421,1.198
				c-6.724,4.927-11.512,13.222-12.418,21.51c-0.265,0.554-0.387,1.181-0.331,1.835v0.004c0.317,3.684-0.78,6.985-3.089,9.297
				c-2.316,2.309-5.627,3.399-9.301,3.089c-0.669-0.063-1.285,0.066-1.835,0.331c-8.284,0.905-16.582,5.694-21.506,12.418
				c-0.505,0.345-0.926,0.825-1.201,1.421l-0.004,0.004c-1.564,3.35-4.165,5.662-7.323,6.508c-3.144,0.843-6.564,0.143-9.601-1.974
				c-0.536-0.376-1.142-0.585-1.752-0.634c-7.633-3.357-17.206-3.357-24.832,0c-0.613,0.049-1.219,0.254-1.755,0.634l-0.021,0.014
				c-3.03,2.107-6.425,2.803-9.58,1.96c-3.155-0.846-5.756-3.158-7.323-6.512H65.1c-0.275-0.592-0.696-1.076-1.198-1.421
				c-4.927-6.724-13.222-11.512-21.51-12.418c-0.55-0.265-1.174-0.394-1.835-0.331h-0.004c-3.688,0.31-6.982-0.78-9.297-3.089
				c-2.309-2.312-3.406-5.613-3.089-9.301c0.056-0.655-0.066-1.285-0.331-1.839c-0.909-8.284-5.697-16.579-12.414-21.503
				c-0.348-0.505-0.829-0.926-1.424-1.201l-0.004-0.004c-3.35-1.564-5.662-4.165-6.508-7.323c-0.846-3.155-0.143-6.564,1.974-9.601
				c0.376-0.536,0.585-1.142,0.634-1.752c3.357-7.629,3.357-17.206,0-24.832c-0.049-0.613-0.258-1.219-0.634-1.755l-0.014-0.02
				c-2.107-3.03-2.803-6.428-1.96-9.58c0.846-3.155,3.158-5.756,6.512-7.323v-0.004c0.592-0.275,1.076-0.696,1.421-1.198
				c6.724-4.927,11.512-13.222,12.418-21.51c0.265-0.554,0.387-1.181,0.331-1.835v-0.004c-0.317-3.684,0.78-6.985,3.089-9.297
				c2.316-2.309,5.624-3.392,9.301-3.089c0.661,0.066,1.285-0.066,1.835-0.331c8.284-0.905,16.582-5.694,21.506-12.418
				c0.505-0.345,0.926-0.825,1.201-1.421h0.004c1.567-3.353,4.168-5.666,7.323-6.512c3.165-0.839,6.564-0.143,9.601,1.974
				c0.536,0.376,1.142,0.585,1.752,0.634c7.633,3.357,17.206,3.357,24.832,0c0.613-0.049,1.219-0.254,1.755-0.634l0.021-0.014
				c3.03-2.103,6.425-2.803,9.58-1.96c3.155,0.846,5.756,3.158,7.323,6.512h0.004c0.275,0.592,0.696,1.076,1.198,1.421
				c4.927,6.724,13.222,11.512,21.51,12.418c0.55,0.265,1.166,0.397,1.835,0.331h0.004c3.688-0.303,6.982,0.78,9.297,3.089
				c2.309,2.312,3.406,5.613,3.089,9.301c-0.056,0.655,0.066,1.282,0.331,1.835c0.905,8.284,5.694,16.582,12.414,21.506
				c0.348,0.505,0.829,0.926,1.424,1.201v0.004c3.353,1.567,5.666,4.168,6.512,7.323c0.843,3.158,0.143,6.568-1.974,9.601
				c-0.376,0.536-0.585,1.142-0.634,1.752c-3.357,7.629-3.357,17.206,0,24.832c0.049,0.613,0.258,1.219,0.634,1.755l0.014,0.021
				C185.055,113.421,185.752,116.819,184.909,119.971z"/>
		</g>
	</g>
</g>
<g>
</g>
<g>
</g>
<g>
</g>
<g>
</g>
<g>
</g>
<g>
</g>
<g>
</g>
<g>
</g>
<g>
</g>
<g>
</g>
<g>
</g>
<g>
</g>
<g>
</g>
<g>
</g>
<g>
</g>
</svg>
